<?xml version="1.0" encoding="UTF-8" standalone="no"?>
<svg
   xmlns:osb="http://www.openswatchbook.org/uri/2009/osb"
   xmlns:dc="http://purl.org/dc/elements/1.1/"
   xmlns:cc="http://creativecommons.org/ns#"
   xmlns:rdf="http://www.w3.org/1999/02/22-rdf-syntax-ns#"
   xmlns:svg="http://www.w3.org/2000/svg"
   xmlns="http://www.w3.org/2000/svg"
   xmlns:sodipodi="http://sodipodi.sourceforge.net/DTD/sodipodi-0.dtd"
   xmlns:inkscape="http://www.inkscape.org/namespaces/inkscape"
   width="99.999992mm"
   height="114.99995mm"
   viewBox="0 0 99.999992 114.99995"
   version="1.1"
   id="svg1316"
   inkscape:version="1.0.2 (e86c870879, 2021-01-15, custom)"
   sodipodi:docname="book.svg">
  <defs
     id="defs1310">
    <linearGradient
       id="linearGradient937"
       osb:paint="solid">
      <stop
         style="stop-color:#00c5fa;stop-opacity:1;"
         offset="0"
         id="stop935" />
    </linearGradient>
    <linearGradient
       id="linearGradient931"
       osb:paint="solid">
      <stop
         style="stop-color:#00b3e3;stop-opacity:1;"
         offset="0"
         id="stop929" />
    </linearGradient>
    <linearGradient
       id="linearGradient925"
       osb:paint="solid">
      <stop
         style="stop-color:#00a1cc;stop-opacity:1;"
         offset="0"
         id="stop923" />
    </linearGradient>
    <linearGradient
       id="linearGradient919"
       osb:paint="solid">
      <stop
         style="stop-color:#008fb5;stop-opacity:1;"
         offset="0"
         id="stop917" />
    </linearGradient>
    <linearGradient
       id="linearGradient913"
       osb:paint="solid">
      <stop
         style="stop-color:#007d9e;stop-opacity:1;"
         offset="0"
         id="stop911" />
    </linearGradient>
    <linearGradient
       id="linearGradient907"
       osb:paint="solid">
      <stop
         style="stop-color:#006b87;stop-opacity:1;"
         offset="0"
         id="stop905" />
    </linearGradient>
    <linearGradient
       id="linearGradient862">
      <stop
         style="stop-color:#4afcfc;stop-opacity:1;"
         offset="0"
         id="stop860" />
    </linearGradient>
    <clipPath
       clipPathUnits="userSpaceOnUse"
       id="clipPath909">
      <rect
         style="fill:#1ebc73;fill-opacity:0.743569;stroke-width:1.77751"
         id="rect911"
         width="134.9375"
         height="140.52151"
         x="-15.539734"
         y="-445.47205"
         ry="0" />
    </clipPath>
  </defs>
  <sodipodi:namedview
     id="base"
     pagecolor="#616161"
     bordercolor="#787878"
     borderopacity="1"
     inkscape:pageopacity="0"
     inkscape:pageshadow="2"
     inkscape:zoom="0.35355339"
     inkscape:cx="-122.65137"
     inkscape:cy="415.45557"
     inkscape:document-units="mm"
     inkscape:current-layer="webslicer-layer"
     inkscape:document-rotation="0"
     showgrid="false"
     inkscape:snap-bbox="true"
     inkscape:bbox-paths="true"
     inkscape:bbox-nodes="true"
     inkscape:snap-bbox-edge-midpoints="true"
     inkscape:snap-bbox-midpoints="true"
     inkscape:object-paths="true"
     inkscape:snap-intersection-paths="true"
     inkscape:snap-smooth-nodes="true"
     inkscape:snap-midpoints="true"
     inkscape:snap-object-midpoints="true"
     inkscape:snap-center="true"
     inkscape:snap-text-baseline="false"
     inkscape:snap-page="true"
     showborder="true"
     inkscape:window-width="1440"
     inkscape:window-height="872"
     inkscape:window-x="0"
     inkscape:window-y="0"
     inkscape:window-maximized="1"
     inkscape:snap-global="true"
     showguides="false"
     inkscape:lockguides="false"
     inkscape:guide-bbox="true"
     guidecolor="#4f7ef8"
     guideopacity="1"
     inkscape:showpageshadow="false"
     borderlayer="false"
     guidehicolor="#4afcfc"
     guidehiopacity="0.49803922"
     inkscape:object-nodes="true"
     inkscape:snap-grids="false"
     inkscape:snap-to-guides="true"
     inkscape:snap-others="true"
     inkscape:snap-nodes="true"
     inkscape:pagecheckerboard="false">
    <inkscape:grid
       type="xygrid"
       id="grid9"
       spacingx="7.9375"
       spacingy="7.9375"
       originx="-293.2229"
       originy="329.44381" />
    <sodipodi:guide
       position="-293.2229,-214.4438"
       orientation="0,1587.4016"
       id="guide13" />
    <sodipodi:guide
       position="126.7771,-214.4438"
       orientation="1122.5197,0"
       id="guide15" />
    <sodipodi:guide
       position="126.7771,-511.4438"
       orientation="0,-1587.4016"
       id="guide17" />
    <sodipodi:guide
       position="-293.2229,-511.4438"
       orientation="-1122.5197,0"
       id="guide19" />
    <sodipodi:guide
       position="-273.52436,40.065729"
       orientation="1,0"
       id="guide952" />
  </sodipodi:namedview>
  <metadata
     id="metadata1313">
    <rdf:RDF>
      <cc:Work
         rdf:about="">
        <dc:format>image/svg+xml</dc:format>
        <dc:type
           rdf:resource="http://purl.org/dc/dcmitype/StillImage" />
        <dc:title></dc:title>
      </cc:Work>
    </rdf:RDF>
  </metadata>
  <g
     inkscape:label="Hoja"
     inkscape:groupmode="layer"
     id="layer1"
     style="display:inline;opacity:1"
     transform="translate(-293.2229,329.4438)">
    <rect
       style="fill:#000000;fill-opacity:0;stroke-width:2.81517;stroke-linecap:round;stroke-linejoin:round;paint-order:markers stroke fill"
       id="rect16"
       width="50.648811"
       height="65.011902"
       x="-148.92261"
       y="-3.0238097"
       sodipodi:insensitive="true" />
  </g>
  <g
     id="webslicer-layer"
     inkscape:label="Dibujo"
     inkscape:groupmode="layer"
     style="opacity:0.488729"
     transform="translate(-293.2229,329.4438)">
    <path
       id="rect998"
       style="fill:#ffffff;fill-opacity:1;stroke-width:1.63086"
       d="m 311.33565,-329.44378 c -0.17768,0 -0.35288,0.01 -0.52571,0.0277 -9.82882,0.51972 -17.58704,8.62349 -17.58704,18.61219 v 77.72015 c 0,9.9887 7.75822,18.09247 17.58704,18.61219 0.17283,0.0177 0.34803,0.0277 0.52571,0.0277 h 0.47862 49.74864 10.40469 16.19163 0.02 c 2.79421,0 5.04366,-2.2554 5.04366,-5.05698 v -0.02 -1.87179 -2.13971 c 0,-1.53197 -0.67338,-2.89788 -1.73684,-3.82724 a 33.460538,33.548812 0 0 1 -1.21216,-8.94682 33.460538,33.548812 0 0 1 1.13588,-8.66609 c 1.12083,-1.11626 1.81311,-2.6645 1.81311,-4.38101 v -6.18457 -17.28699 -51.56178 c 0,-2.80159 -2.24945,-5.05697 -5.04366,-5.05697 H 361.56294 311.8143 Z m 9.84162,28.49363 h 44.09121 c 2.04083,0 3.68409,1.64708 3.68409,3.69328 0,2.04622 -1.64326,3.6938 -3.68409,3.6938 h -44.09121 c -2.04083,0 -3.68409,-1.64758 -3.68409,-3.6938 0,-2.0462 1.64326,-3.69328 3.68409,-3.69328 z m 0,14.07205 h 44.09121 c 2.04083,0 3.68409,1.6476 3.68409,3.6938 0,2.04621 -1.64326,3.69329 -3.68409,3.69329 h -44.09121 c -2.04083,0 -3.68409,-1.64708 -3.68409,-3.69329 0,-2.0462 1.64326,-3.6938 3.68409,-3.6938 z m -6.5691,43.6943 h 53.30116 10.62174 a 45.72092,45.841539 0 0 0 -0.51752,6.87745 45.72092,45.841539 0 0 0 0.64959,7.69707 h -6.69554 -57.35943 c -4.0265,0 -7.26783,-3.2504 -7.26783,-7.28752 0,-4.03712 3.24133,-7.287 7.26783,-7.287 z" />
  </g>
</svg>
