<?xml version="1.0" encoding="UTF-8" standalone="no"?>
<svg
   width="39.999992"
   height="39.999992"
   viewBox="0 0 10.583331 10.583331"
   version="1.1"
   id="svg1316"
   xmlns="http://www.w3.org/2000/svg"
   xmlns:svg="http://www.w3.org/2000/svg"
   xmlns:rdf="http://www.w3.org/1999/02/22-rdf-syntax-ns#"
   xmlns:cc="http://creativecommons.org/ns#"
   xmlns:dc="http://purl.org/dc/elements/1.1/">
  <defs
     id="defs1310">
    <linearGradient
       id="linearGradient937">
      <stop
         style="stop-color:#00c5fa;stop-opacity:1;"
         offset="0"
         id="stop935" />
    </linearGradient>
    <linearGradient
       id="linearGradient931">
      <stop
         style="stop-color:#00b3e3;stop-opacity:1;"
         offset="0"
         id="stop929" />
    </linearGradient>
    <linearGradient
       id="linearGradient925">
      <stop
         style="stop-color:#00a1cc;stop-opacity:1;"
         offset="0"
         id="stop923" />
    </linearGradient>
    <linearGradient
       id="linearGradient919">
      <stop
         style="stop-color:#008fb5;stop-opacity:1;"
         offset="0"
         id="stop917" />
    </linearGradient>
    <linearGradient
       id="linearGradient913">
      <stop
         style="stop-color:#007d9e;stop-opacity:1;"
         offset="0"
         id="stop911" />
    </linearGradient>
    <linearGradient
       id="linearGradient907">
      <stop
         style="stop-color:#006b87;stop-opacity:1;"
         offset="0"
         id="stop905" />
    </linearGradient>
    <linearGradient
       id="linearGradient862">
      <stop
         style="stop-color:#4afcfc;stop-opacity:1;"
         offset="0"
         id="stop860" />
    </linearGradient>
  </defs>
  <metadata
     id="metadata1313">
    <rdf:RDF>
      <cc:Work
         rdf:about="">
        <dc:format>image/svg+xml</dc:format>
        <dc:type
           rdf:resource="http://purl.org/dc/dcmitype/StillImage" />
      </cc:Work>
    </rdf:RDF>
  </metadata>
  <g
     id="layer1"
     style="display:inline;opacity:1"
     transform="translate(-19.273847,-7.9794321)">
    <rect
       style="fill:#000000;fill-opacity:0;stroke-width:2.81517;stroke-linecap:round;stroke-linejoin:round;paint-order:markers stroke fill"
       id="rect16"
       width="50.648811"
       height="65.011902"
       x="-148.92261"
       y="-3.0238097" />
  </g>
  <g
     id="webslicer-layer"
     style="opacity:1"
     transform="translate(-19.273847,-7.9794321)">
    <path
       id="circle959"
       style="fill:#000000;stroke:#000000;stroke-width:0;stroke-linecap:round;stroke-linejoin:round"
       d="m 23.516095,8.574052 a 0.84029334,0.84029334 0 0 0 -0.840317,0.8403168 v 2.7108852 c -0.226347,-0.144828 -0.530419,-0.297159 -0.794752,-0.282983 a 0.84029334,0.84029334 0 0 0 -0.839837,0.840317 0.84029334,0.84029334 0 0 0 0.424475,0.730001 c 0,0 0,4.79e-4 0,4.79e-4 0,0 0.0031,8.65e-4 0.0034,9.7e-4 a 0.84029334,0.84029334 0 0 0 0.124225,0.05756 c 0.185261,0.102185 0.545458,0.365059 0.895954,0.988043 0.500998,0.89049 0.564528,1.088287 0.564528,1.088287 0,0 0.153197,0.2543 0.49642,0.349653 1.33e-4,5.8e-5 3.45e-4,-6e-5 4.8e-4,0 0.0525,0.0226 0.110248,0.03549 0.171229,0.03549 h 0.0964 3.122411 c 0.229438,0 0.416128,-0.1774 0.43119,-0.402893 0,0 0.193511,-0.690572 0.39378,-1.037446 0.183878,-0.360758 0.632351,-1.816012 -0.01007,-2.557403 -6.74e-4,-7.77e-4 -0.0011,-0.0016 -0.0019,-0.0024 a 0.84029334,0.84029334 0 0 0 -0.0062,-0.0072 0.84029334,0.84029334 0 0 0 -0.638923,-0.29497 0.84029334,0.84029334 0 0 0 -0.351572,0.0777 0.84029334,0.84029334 0 0 0 -0.737195,-0.436466 0.84029334,0.84029334 0 0 0 -0.422557,0.114153 0.84029334,0.84029334 0 0 0 -0.682518,-0.349654 0.84029334,0.84029334 0 0 0 -0.558293,0.212478 V 9.4143688 A 0.84029334,0.84029334 0 0 0 23.516095,8.574052 Z m 0.840317,3.930112 a 0.84029334,0.84029334 0 0 0 0.0024,0.0019 h -0.0024 z m 0.981809,0.09833 a 0.84029334,0.84029334 0 0 0 8.82e-4,9.7e-4 h -0.0024 a 0.84029334,0.84029334 0 0 0 0.0015,-9.7e-4 z m -1.832198,3.618351 c -0.239353,0 -0.43215,0.192796 -0.43215,0.432148 v 0.883485 c 0,0.239353 0.192797,0.43167 0.43215,0.43167 h 3.543528 c 0.239353,0 0.432149,-0.192317 0.432149,-0.43167 v -0.883485 c 0,-0.239352 -0.192796,-0.432148 -0.432149,-0.432148 z" />
  </g>
</svg>
